<?xml version="1.0" encoding="UTF-8"?>
<svg version="1.1" xmlns="http://www.w3.org/2000/svg" width="1064" height="1064">
<path d="M0 0 C83.16 0 166.32 0 252 0 C250.95017375 4.19930499 249.91943962 5.63605177 247.1875 8.875 C246.3728125 9.84566406 245.558125 10.81632812 244.71875 11.81640625 C243.8133512 12.8783305 242.90707332 13.93950574 242 15 C241.30390625 15.81766846 241.30390625 15.81766846 240.59375 16.65185547 C236.56060304 21.38778924 232.49990996 26.0998543 228.43847656 30.81152344 C223.41838502 36.63835913 218.40626351 42.46234648 213.5625 48.4375 C208.40813208 54.78276881 203.02637235 60.92509448 197.65966797 67.09033203 C191.5392154 74.13272391 185.43969663 81.19002801 179.5625 88.4375 C175.46020051 93.48933717 171.21298022 98.4030598 166.93994141 103.31005859 C163.40779237 107.36838171 159.90543165 111.44918104 156.4375 115.5625 C151.14058879 121.84463475 145.79661182 128.08560602 140.44287109 134.31933594 C137.96007325 137.21131231 135.48011168 140.10572001 133 143 C133.73412109 143.23074219 134.46824219 143.46148437 135.22460938 143.69921875 C149.36527169 148.17960393 163.09069647 152.62115946 176 160 C176.86818359 160.49282471 176.86818359 160.49282471 177.75390625 160.99560547 C185.38560231 165.36846487 192.30002065 170.31656924 199 176 C199.68578125 176.55171875 200.3715625 177.1034375 201.078125 177.671875 C227.09696118 199.18351121 239.03464843 234.15964296 242.1875 266.6875 C245.8280731 308.73828635 239.22715487 351.51955856 211.796875 384.91015625 C184.82665136 416.27769897 148.07949878 436.87365548 106.71118164 440.79931641 C70.225737 443.49999497 34.78948441 435.15159348 6.1328125 411.6484375 C3.69217473 409.4896971 1.33887635 407.26800131 -1 405 C-1.67160156 404.401875 -2.34320313 403.80375 -3.03515625 403.1875 C-20.2912796 387.26932657 -31.07075083 360.74492203 -35 338 C-35 335.69 -35 333.38 -35 331 C-30.05 331 -25.1 331 -20 331 C-19.41605469 332.56234375 -19.41605469 332.56234375 -18.8203125 334.15625 C-6.91309517 365.06047817 14.03679318 385.43280546 44.1875 398.8125 C73.23807229 411.29952069 106.62775121 412.01438634 136.19335938 400.55957031 C147.87264947 395.71592564 158.46798791 389.30819137 168 381 C168.68191406 380.46117187 169.36382812 379.92234375 170.06640625 379.3671875 C190.24634916 363.01787954 199.31651561 335.88564026 202.58984375 310.92578125 C203.26922658 304.2014106 203.24421078 297.43998519 203.25 290.6875 C203.25067474 289.97890839 203.25134949 289.27031677 203.25204468 288.54025269 C203.20055706 254.39530123 194.00698317 221.68878299 169.73046875 196.66015625 C150.39456324 178.4145008 124.43518355 166.71289562 97.66015625 166.90234375 C96.50972084 166.90446617 96.50972084 166.90446617 95.33604431 166.90663147 C92.9114881 166.91218234 90.48702781 166.92472537 88.0625 166.9375 C86.40820447 166.94252136 84.75390747 166.94708315 83.09960938 166.95117188 C79.06636988 166.96213562 75.03320114 166.97936576 71 167 C72.50341398 162.99393912 74.10627171 160.49285629 77.0625 157.375 C80.24737819 153.93695184 83.30835662 150.46100777 86.25 146.8125 C89.87262962 142.33785819 93.59474403 137.96605104 97.375 133.625 C102.85994883 127.32566763 108.27995091 120.9760422 113.66162109 114.58837891 C115.91767427 111.91091047 118.17706606 109.23627043 120.4375 106.5625 C120.88738281 106.03011719 121.33726562 105.49773437 121.80078125 104.94921875 C125.22149895 100.90655238 128.67105537 96.88928039 132.125 92.875 C135.61815106 88.81371255 139.06448396 84.72481413 142.4375 80.5625 C146.53979949 75.51066283 150.78701978 70.5969402 155.06005859 65.68994141 C159.04124023 61.1156946 162.97780046 56.5069501 166.88378906 51.8684082 C169.34534029 48.94768647 171.82128072 46.04056394 174.31640625 43.1484375 C175.14386353 42.18852905 175.14386353 42.18852905 175.98803711 41.20922852 C177.05872825 39.96863202 178.13109065 38.72947543 179.20532227 37.49194336 C181.88460701 34.4419497 181.88460701 34.4419497 184 31 C170.10683694 30.95282526 156.21368668 30.91792624 142.32045937 30.89637566 C135.86644298 30.8860226 129.41248112 30.8720222 122.95849609 30.84912109 C116.70793512 30.82708544 110.45742595 30.81536801 104.20682907 30.81024551 C101.8447221 30.806604 99.48261735 30.799497 97.12053299 30.78853989 C52.08418853 29.2802311 52.08418853 29.2802311 12.5625 47.75 C4.85956934 56.3051698 -0.05972946 66.71402639 -5 77 C-8.63 77 -12.26 77 -16 77 C-15.73076233 66.24395504 -14.50401343 56.23723009 -11.7421875 45.81005859 C-10.83186419 42.36340686 -9.94708784 38.91035174 -9.0625 35.45703125 C-7.39283267 28.94708089 -5.70687719 22.44153466 -4.01147461 15.93823242 C-2.6486536 10.63201331 -1.32871549 5.31486195 0 0 Z " fill="#0F3C6B" transform="translate(148,306)"/>
<path d="M0 0 C0 2.97 0 5.94 0 9 C-1.02738281 9.36351562 -2.05476563 9.72703125 -3.11328125 10.1015625 C-17.35418327 15.22539183 -31.15197414 20.60786757 -38.8125 34.625 C-50.69070952 61.36117607 -49.29704029 93.83175886 -49.54844093 122.56773186 C-49.58438226 126.64279047 -49.63834622 130.71590478 -49.73388672 134.79003906 C-49.82712499 138.78336569 -49.87540966 142.77496848 -49.89283371 146.76932144 C-49.90681119 148.27405486 -49.93618331 149.77873656 -49.98213577 151.2828331 C-50.20735777 159.01635238 -50.02221006 164.75742 -44.62841797 170.79345703 C-43.11078866 172.22284961 -41.57033249 173.62871677 -40 175 C-38.99426583 176.06835625 -38.00194907 177.14971386 -37.03125 178.25 C-36.1959375 179.1575 -35.360625 180.065 -34.5 181 C-30.40775681 185.45281847 -26.35176546 189.9366042 -22.3125 194.4375 C-19.72384997 197.30600409 -17.11414854 200.1547665 -14.5 203 C-10.40833893 207.45335487 -6.35177054 211.93659854 -2.3125 216.4375 C0.27615003 219.30600409 2.88585146 222.1547665 5.5 225 C9.59166107 229.45335487 13.64822946 233.93659854 17.6875 238.4375 C20.27615187 241.30600613 22.88607553 244.15455909 25.5 247 C32.23079569 254.33624192 38.91817547 261.67917599 45.3125 269.3125 C50.55498072 275.5650677 56.05836069 281.54612649 61.62158203 287.51269531 C63.62549561 289.674906 65.59506286 291.86710669 67.5625 294.0625 C70.8505372 297.73106954 74.16673766 301.37254178 77.5 305 C81.59169207 309.45332617 85.64822977 313.93659888 89.6875 318.4375 C92.27615003 321.30600409 94.88585146 324.1547665 97.5 327 C101.59166107 331.45335487 105.64822946 335.93659854 109.6875 340.4375 C112.27615003 343.30600409 114.88585146 346.1547665 117.5 349 C121.59166107 353.45335487 125.64822946 357.93659854 129.6875 362.4375 C132.27615003 365.30600409 134.88585146 368.1547665 137.5 371 C140.85290579 374.64929525 144.18998331 378.31169568 147.5 382 C152.62319284 387.70661694 157.81119939 393.35315354 163 399 C168.91712063 405.43945955 174.82185653 411.88795575 180.65234375 418.40625 C182.42089885 420.3601944 184.20328405 422.29475078 186.00390625 424.21875 C186.51179688 424.76402344 187.0196875 425.30929687 187.54296875 425.87109375 C188.54015269 426.94005443 189.54133757 428.00529965 190.546875 429.06640625 C194 432.77678412 194 432.77678412 194 435 C187.42234436 435.38420479 180.84762236 435.64450237 174.26123047 435.82397461 C172.02770978 435.89885472 169.7949106 436.00081449 167.56396484 436.1315918 C148.03185108 437.24683788 148.03185108 437.24683788 141.453125 431.74365234 C138.35541164 428.65605973 135.70723695 425.32385682 133.21508789 421.73483276 C131.71407494 419.59177261 130.02089604 417.67306152 128.25 415.75 C127.48429687 414.86054687 127.48429687 414.86054687 126.703125 413.953125 C124.50634095 411.43387724 122.25310381 408.96897004 120 406.5 C117.15475772 403.38092989 114.3280042 400.25244609 111.5625 397.0625 C108.13231424 393.11332633 104.58996482 389.26977695 101.04711914 385.42211914 C97.93400701 382.03537381 94.88747918 378.60093751 91.875 375.125 C89.45449925 372.38176582 86.97799358 369.69115432 84.5 367 C80.89987244 363.09018405 77.35582395 359.14133532 73.875 355.125 C71.45449925 352.38176582 68.97799358 349.69115432 66.5 347 C63.46111982 343.69971077 60.43843955 340.39050717 57.5 337 C54.13677362 333.12182987 50.66664329 329.34472189 47.19189453 325.56689453 C42.75776372 320.74415109 38.3748176 315.8765888 34 311 C32.50028872 309.33307353 31.00028679 307.66640851 29.5 306 C-33.5 236 -33.5 236 -35.72265625 233.52734375 C-37.30982546 231.76593984 -38.90130953 230.00841847 -40.49609375 228.25390625 C-41.30175781 227.36574219 -42.10742188 226.47757813 -42.9375 225.5625 C-43.66839844 224.75941406 -44.39929688 223.95632813 -45.15234375 223.12890625 C-47 221 -47 221 -49 218 C-49.07035109 237.63782501 -49.12311522 257.27562415 -49.15543652 276.91354942 C-49.17084852 286.03355519 -49.19182846 295.15348227 -49.22631836 304.2734375 C-49.25639553 312.23041391 -49.27561608 320.18733327 -49.28226548 328.14436495 C-49.28614701 332.35027616 -49.29514805 336.5560243 -49.31719017 340.76188278 C-50.00122662 379.93807079 -50.00122662 379.93807079 -32.3359375 413.890625 C-23.78926289 422.24904686 -11.00685494 426.8724294 0 431 C0 433.97 0 436.94 0 440 C-9.66993675 440.25197343 -19.20437321 439.54399789 -28.8326416 438.77484131 C-43.44783825 437.61136437 -58.02613947 436.64857761 -72.68554688 436.29125977 C-73.72259766 436.26475342 -74.75964844 436.23824707 -75.828125 436.2109375 C-76.7140332 436.19337402 -77.59994141 436.17581055 -78.51269531 436.15771484 C-81 436 -81 436 -86 435 C-86 293.1 -86 151.2 -86 5 C-82.93430914 3.97810305 -80.57529088 3.77853866 -77.35791016 3.62695312 C-75.61932236 3.54181458 -75.61932236 3.54181458 -73.84561157 3.45495605 C-72.58945038 3.39763306 -71.33328918 3.34031006 -70.0390625 3.28125 C-68.05691543 3.18525002 -66.07476845 3.08924816 -64.09262657 2.99314117 C-61.30788278 2.85916595 -58.52296347 2.72905445 -55.73803711 2.59893799 C-50.90764584 2.37276629 -46.07747503 2.14200149 -41.24740601 1.90905762 C-38.67965599 1.78560638 -36.11180909 1.66414796 -33.54385376 1.54504395 C-26.65272283 1.21652013 -19.78357727 0.78212169 -12.9090271 0.19958496 C-8.59657941 -0.09628705 -4.32095412 -0.06449185 0 0 Z " fill="#0F3C6C" transform="translate(505,301)"/>
<path d="M0 0 C13.72607889 -0.37663021 27.2381536 0.12656587 40.91287231 1.22955322 C47.83636235 1.78604583 54.76280247 2.30610915 61.68914795 2.82568359 C63.76451954 2.98223681 65.83955876 3.14318132 67.91455078 3.3046875 C90.93969576 4.97303889 113.84668677 3.11432399 136.81860352 1.47436523 C162.7125019 -0.36699386 162.7125019 -0.36699386 175 0 C175 2.97 175 5.94 175 9 C173.87078125 9.36798706 173.87078125 9.36798706 172.71875 9.7434082 C125.55569588 25.23667181 85.09930904 49.72901582 46 80 C45.24605957 80.58362305 44.49211914 81.16724609 43.71533203 81.76855469 C38.46801575 85.8343634 33.23204611 89.91456947 28 94 C27.06244873 94.73065674 27.06244873 94.73065674 26.10595703 95.47607422 C18.6562483 101.2833915 11.28953173 107.18319717 3.97143555 113.15551758 C-0.42058041 116.73417753 -4.84865754 120.26143015 -9.3125 123.75 C-14.27149653 127.62693327 -19.17297445 131.56423009 -24.03515625 135.5625 C-34.91851363 144.51008235 -45.88753255 153.33860964 -57 162 C-57.94746094 162.73863281 -58.89492188 163.47726562 -59.87109375 164.23828125 C-61.91254503 165.82749215 -63.95524463 167.41504411 -66 169 C-61.10963923 174.76811783 -56.07112709 180.39064384 -51 186 C-49.49957053 187.66628005 -47.99956619 189.332943 -46.5 191 C-45.75492188 191.82757813 -45.00984375 192.65515625 -44.2421875 193.5078125 C-42.76707382 195.14739879 -41.29308348 196.78799655 -39.8203125 198.4296875 C-35.69902232 203.0203061 -31.55126212 207.58447107 -27.375 212.125 C-23.81746901 215.99367822 -20.31710425 219.90334125 -16.875 223.875 C-13.98080664 227.15508581 -11.00781108 230.36268057 -8.04467773 233.58032227 C-5.51259884 236.33473428 -3.00964732 239.10742499 -0.5625 241.9375 C2.54964124 245.52958591 5.76872086 249.01551992 9 252.5 C12.78631688 256.58301022 16.51767049 260.69769717 20.16015625 264.91015625 C22.56670156 267.64370559 25.03303196 270.32114006 27.5 273 C30.53890177 276.30026876 33.561561 279.60949347 36.5 283 C39.86322638 286.87817013 43.33335671 290.65527811 46.80810547 294.43310547 C51.24223628 299.25584891 55.6251824 304.1234112 60 309 C61.49971128 310.66692647 62.99971321 312.33359149 64.5 314 C67.5 317.33333333 70.5 320.66666667 73.5 324 C74.24507812 324.82757812 74.99015625 325.65515625 75.7578125 326.5078125 C77.23292618 328.14739879 78.70691652 329.78799655 80.1796875 331.4296875 C84.76812308 336.54064956 89.39401005 341.61467215 94.04541016 346.66821289 C96.65782655 349.51330482 99.22705372 352.38791877 101.75 355.3125 C104.45409094 358.43508121 107.31604374 361.33704518 110.26171875 364.23046875 C112.02957316 366.03010481 113.67254542 367.89601912 115.3125 369.8125 C121.3350534 376.78029721 127.9100729 383.21627514 134.91796875 389.1875 C136.38758648 390.46686703 137.82520678 391.78344239 139.23828125 393.125 C157.83676091 410.71112074 179.36047051 426.54095139 205 431 C205 433.97 205 436.94 205 440 C193.07764449 440.45256288 181.2355703 439.11285256 169.375 438.0625 C166.22733874 437.78624895 163.07955884 437.51157521 159.9315033 437.23985291 C157.87934179 437.06271867 155.82738542 436.88319056 153.77565002 436.70118713 C149.06592251 436.29426993 144.37334963 435.94845845 139.64819336 435.79077148 C138.82489532 435.76079575 138.00159729 435.73082001 137.15335083 435.69993591 C135.64108878 435.65176614 134.12818471 435.61963271 132.61520386 435.6075592 C127.75609045 435.45280315 125.29892514 434.29125417 121.8125 430.9375 C120.50059653 429.32421329 119.22652778 427.67911117 118 426 C116.90699828 424.74022571 115.80307883 423.48982576 114.6875 422.25 C114.13191406 421.60289062 113.57632813 420.95578125 113.00390625 420.2890625 C110.43130036 417.35037429 107.78057349 414.48863478 105.125 411.625 C100.80229839 406.96078625 96.52183148 402.2630561 92.27734375 397.52734375 C89.70190225 394.66917797 87.10314236 391.83289739 84.5 389 C80.40830793 384.54667383 76.35177023 380.06340112 72.3125 375.5625 C69.72384997 372.69399591 67.11414854 369.8452335 64.5 367 C60.40833893 362.54664513 56.35177054 358.06340146 52.3125 353.5625 C49.72384997 350.69399591 47.11414854 347.8452335 44.5 345 C40.40833893 340.54664513 36.35177054 336.06340146 32.3125 331.5625 C29.72384997 328.69399591 27.11414854 325.8452335 24.5 323 C20.40833893 318.54664513 16.35177054 314.06340146 12.3125 309.5625 C9.72384997 306.69399591 7.11414854 303.8452335 4.5 301 C0.40833893 296.54664513 -3.64822946 292.06340146 -7.6875 287.5625 C-10.27615036 284.69399555 -12.88589108 281.84527019 -15.5 279 C-21.10303176 272.90012856 -26.64212914 266.74438837 -32.171875 260.578125 C-36.72235371 255.51127991 -41.30605967 250.47637512 -45.91357422 245.46142578 C-49.53228476 241.51936798 -53.11345702 237.54500503 -56.6875 233.5625 C-59.27615003 230.69399591 -61.88585146 227.8452335 -64.5 225 C-68.59166107 220.54664513 -72.64822946 216.06340146 -76.6875 211.5625 C-79.27615003 208.69399591 -81.88585146 205.8452335 -84.5 203 C-88.58668782 198.55205801 -92.63915696 194.07504081 -96.671875 189.578125 C-98.38214974 187.6841966 -100.09974229 185.7991359 -101.828125 183.921875 C-102.55612305 183.13103516 -102.55612305 183.13103516 -103.29882812 182.32421875 C-104.67188157 180.8347422 -106.04682182 179.34700563 -107.421875 177.859375 C-108.27265625 176.91578125 -109.1234375 175.9721875 -110 175 C-110.48662109 174.48759766 -110.97324219 173.97519531 -111.47460938 173.44726562 C-114.9410343 169.63658884 -114.9410343 169.63658884 -115.19140625 166.93359375 C-113.35454069 163.95245128 -110.71213594 162.10980419 -107.9375 160.0625 C-106.65382554 159.08610927 -105.37131838 158.10818239 -104.08984375 157.12890625 C-103.08219971 156.36344482 -103.08219971 156.36344482 -102.05419922 155.58251953 C-98.64657741 152.95734666 -95.32658524 150.22660966 -92 147.5 C-86.47766684 142.99112129 -80.90812753 138.55155164 -75.2890625 134.1640625 C-70.81563292 130.66223753 -66.40132798 127.09188836 -62 123.5 C-57.03762183 119.4502431 -52.048419 115.44200507 -47 111.5 C-41.16955562 106.94653333 -35.41641816 102.30343412 -29.68408203 97.62719727 C-26.1010011 94.7044332 -22.50315368 91.80433619 -18.875 88.9375 C8.83156059 67.73596983 8.83156059 67.73596983 25 38 C25.58008801 31.96708467 24.40490937 27.89880124 21 23 C15.29924012 16.48684682 7.61673626 12.81997901 0 9 C0 6.03 0 3.06 0 0 Z " fill="#29A250" transform="translate(609,301)"/>
<path d="M0 0 C1 1 1 1 1.02172852 4.16430664 C0.97921136 5.57975191 0.93116378 6.99503712 0.87890625 8.41015625 C0.85529526 9.16985214 0.83168427 9.92954803 0.80735779 10.71226501 C0.73057262 13.16252658 0.64698301 15.61249271 0.5625 18.0625 C0.45633125 21.24078572 0.35355986 24.41915965 0.25390625 27.59765625 C0.22894073 28.38391388 0.20397522 29.17017151 0.17825317 29.98025513 C-0.01429841 36.46728037 -0.02846481 42.94409238 0.02905273 49.43334961 C-0.01613692 54.98104372 -0.47048961 60.47796309 -1 66 C-2.98 66 -4.96 66 -7 66 C-7.18062988 65.42668945 -7.36125977 64.85337891 -7.54736328 64.26269531 C-14.35829035 42.81021119 -21.32456425 24.58477065 -42 13 C-46.58150599 10.94309995 -51.16734728 9.35633414 -56 8 C-56.86625 7.75507812 -57.7325 7.51015625 -58.625 7.2578125 C-80.80637983 2.19768523 -104.93320947 7.26762833 -124.08984375 19.00390625 C-143.8103665 32.53033192 -153.4271903 53.15422447 -158 76 C-163.19566991 106.24466192 -159.99671796 139.33366412 -142.0625 165 C-140.73949136 166.69150621 -139.38594093 168.35966074 -138 170 C-137.33613281 170.78761719 -136.67226563 171.57523438 -135.98828125 172.38671875 C-123.13182997 186.38385332 -103.36651558 193.11474463 -84.76123047 194.12109375 C-56.57447203 195.25788578 -31.57228224 187.5867018 -10 169 C-8.83501049 167.65871351 -7.70056282 166.28900659 -6.625 164.875 C-4 162 -4 162 -0.125 161.5625 C0.90625 161.706875 1.9375 161.85125 3 162 C1.81550421 170.26029956 0.41462739 178.47515251 -1.0625 186.6875 C-1.2368457 187.66799316 -1.41119141 188.64848633 -1.59082031 189.65869141 C-1.75807617 190.57956543 -1.92533203 191.50043945 -2.09765625 192.44921875 C-2.24726807 193.27768311 -2.39687988 194.10614746 -2.55102539 194.9597168 C-3 197 -3 197 -4 199 C-6.92890425 200.38084228 -10.0516572 201.30165449 -13.125 202.3125 C-14.06134277 202.62082764 -14.99768555 202.92915527 -15.96240234 203.24682617 C-51.44835237 214.58596744 -94.06608899 219.32595015 -128.5625 202.125 C-134.7278978 198.90925394 -140.53947554 195.32052023 -146 191 C-146.75539063 190.40832031 -147.51078125 189.81664062 -148.2890625 189.20703125 C-169.16816561 171.80777866 -178.0483828 144.84860008 -180.80371094 118.65625 C-181.2333518 112.84220444 -181.24482458 107.01494009 -181.25 101.1875 C-181.25067474 100.50291718 -181.25134949 99.81833435 -181.25204468 99.11300659 C-181.20389763 68.24174805 -173.80610535 38.86678498 -151.625 16.25 C-138.53005886 3.60351574 -122.5838286 -4.65769057 -105 -9 C-104.35885254 -9.16371094 -103.71770508 -9.32742188 -103.05712891 -9.49609375 C-70.73970661 -17.35423612 -30.59844611 -12.28756497 0 0 Z " fill="#289E4E" transform="translate(950,517)"/>
<path d="M0 0 C-0.55982088 4.04075842 -1.79275658 6.49192921 -4.125 9.8125 C-23.9952619 40.35081234 -25.90572039 81.33207365 -19 116.21875 C-15.09678467 134.59230047 -8.38428048 151.59376064 4.71484375 165.44140625 C6 167 6 167 6 169 C-4.84250753 168.42934171 -13.87057432 159.37147408 -21 152 C-38.79359271 131.17019901 -45.74167927 100.83297541 -43.86376953 74.05761719 C-41.69344 48.05055232 -33.14195147 24.39934315 -13 7 C-3.32795699 0 -3.32795699 0 0 0 Z " fill="#279A4C" transform="translate(779,537)"/>
</svg>
